<svg version="1" xmlns="http://www.w3.org/2000/svg" width="1950.667" height="1950.667" viewBox="0 0 1463.000000 1463.000000"><path d="M633.9 28.4c-.2.2-6 .6-12.9 1s-14.3.8-16.5 1c-10.5 1-17.2 1.8-19.5 2.1-1.4.2-6.3.9-11 1.5s-12.5 1.8-17.5 2.6c-4.9.9-10.3 1.8-12 2.1-1.6.3-7.9 1.6-14 2.9-6 1.4-12.1 2.7-13.5 3-16.5 3.4-62 17.9-78.5 24.9-1.6.7-7 3-12 5-25 10.4-50.1 23.3-76.1 39.1-15.6 9.5-55.5 37.3-59.4 41.4-.3.3-2.7 2.3-5.5 4.5-2.7 2.2-5.7 4.7-6.5 5.6-.9.8-2.6 2.2-3.7 3-7.8 5.4-44.4 40.5-56.9 54.4-1.4 1.6-4.5 5-6.8 7.5-10.8 11.6-30.1 35.3-43.5 53.4-12.9 17.4-36.8 53.8-44.7 68.1-.6 1.1-4.3 7.6-8.1 14.5-9.5 16.9-23.5 44.9-32.6 65-18 40.2-36.6 92.3-47.4 133-3.8 14.7-11.1 44.1-11.8 47.7-.3 1.8-1.2 6.1-2 9.6-.8 3.4-1.7 8-2.1 10.1-.3 2.1-.8 4.8-1 6-.8 3.5-5.2 28.8-5.8 33.1-.4 2.3-.8 5-1 6-.3 1.7-.7 4-2.1 14-.2 1.9-1 7.8-2 16.7-1 7.5-1.4 11.4-2 17.3-.3 3.3-.8 7.3-1 9-.2 1.6-.6 7.7-1 13.5s-.9 11.6-1 13c-2.6 20.6-2.6 105.7 0 128 .2 1.9.6 6.2 1 9.5.5 5.7 2 17.8 3.1 25.5 1.2 8.6 3.7 22.5 6.1 33.5 1.4 6.6 2.6 12.7 2.8 13.5.7 3.5 5.5 21.3 8.4 31 15.8 54 43.1 108.8 77 155 5 6.8 7.9 10.6 17.4 22.5 8.2 10.3 20.5 23.5 36.6 39.5 24.2 23.9 37.3 35.3 62.1 53.9 10.1 7.5 37.3 26.1 44.1 30 1.3.8 5.9 3.6 10.2 6.3 4.3 2.6 8 4.8 8.3 4.8.2 0 2.1 1.1 4.2 2.4 10.5 6.8 72 37.6 75.1 37.6.4 0 2.1.6 3.7 1.4 9.3 4.4 31.8 13.2 49.9 19.5 6.6 2.3 13.8 4.8 16 5.6 6 2.2 26.1 8.4 34 10.6 3.9 1.1 7.7 2.2 8.5 2.4 4.5 1.3 31.8 8.6 33.5 8.9 1.8.4 22.6 5.2 26.5 6.1 2.5.6 36.3 7.3 39.5 7.8 1.7.3 7.1 1.2 12 2 8.6 1.5 11.9 2 20.2 3.2 2.1.3 4.9.8 6.3 1 1.4.3 4.8.7 7.5 1 2.8.3 6.6.8 8.5 1 6.4.9 10.4 1.4 20 2.5 5.2.6 10.9 1.3 12.5 1.5 1.7.2 6.6.6 11 1s10 .8 12.5 1.1c2.5.2 8.6.6 13.5 1 5 .3 11.5.7 14.5.9 35.9 2.6 118.7 2.7 143.5.1 1.7-.2 6.6-.7 11-1 4.4-.4 9.4-.9 11-1.1 1.7-.2 5.5-.7 8.5-1 3-.3 6.4-.7 7.5-.9 1.1-.2 4.7-.7 8-1.1 3.2-.4 6.6-.8 7.5-1 .8-.1 3.8-.6 6.5-1 2.8-.5 5.2-.9 5.5-1 .3 0 2.6-.4 5.1-.8 7.4-1.2 9.8-1.7 22.4-4.3 6.6-1.4 13.1-2.7 14.5-3 1.4-.3 3.3-.7 4.2-1 .9-.3 2.6-.7 3.9-.9 1.2-.2 3.6-.9 5.3-1.4 1.7-.6 4.2-1.2 5.6-1.5 5.6-1.1 28.5-7.8 44-13 47.1-15.6 91.7-36.5 132.5-61.9 62.1-38.7 114.4-86.2 160.8-145.9 8.5-10.9 29.6-41.2 34.2-49 .6-.9 3.3-5.4 6-10 7.3-12 7.4-12.2 8.1-13.7.4-.7 3.6-6.6 7.1-13 6-10.7 14.8-28.4 22.1-44.1 8.2-17.7 19.9-47.9 27.4-70.5 4.6-14 13.2-42.9 14.2-47.8.3-1.2 2.1-8.5 4-16.2 3.9-15.9 8.6-39.4 11.6-58.2 1.2-7 2.3-13.9 2.5-15.3.2-1.4.7-4.8 1-7.5.4-2.8.8-5.7 1-6.5.2-.8.7-4.4 1-8 .3-3.6.8-8.1 1-10 1-7.5 1.4-11.8 2-20 .4-4.7.8-10.1 1-12 2-20.4 2.6-85.3 1.1-111-.4-8-.9-14.7-1.1-15-.1-.3-.6-4.1-.9-8.5-.6-6.9-1.6-15.7-3.1-25.5-.2-1.4-.7-4.5-1-7-6.7-47.6-24.2-107.1-46-156.1-5.7-12.8-20.4-42.3-23.9-47.8-1.4-2.2-2.6-4.3-2.6-4.5 0-.3-3.3-6.1-7.3-12.8-21.7-36.4-47.4-71.1-77.6-104.8-7.9-8.8-43.1-44.2-49.7-50-1.6-1.4-6.3-5.5-10.4-9-4.1-3.6-8.1-7.1-8.9-7.8-2.6-2.5-25.5-20.7-31.6-25.3-3.3-2.4-6.2-4.6-6.5-5-2.3-2.6-55.5-38.7-60-40.6-.8-.4-5.5-3.1-10.4-6.1-4.9-2.9-11.4-6.7-14.5-8.4-3.1-1.7-9.2-5-13.6-7.5-14.6-8-49.3-24.8-65.5-31.8-3.6-1.5-7.9-3.4-9.7-4.2-4.7-2-27.6-11.1-36.8-14.5-30.1-11.3-86.6-28-114-33.8-2.2-.5-4.9-1-6-1.3-1.7-.4-17.3-3.5-39-7.6-2.7-.6-7-1.3-9.5-1.7-2.5-.3-5.2-.8-6.1-.9-.9-.2-4-.6-7-1s-5.6-.8-5.9-1c-.3-.2-3.2-.6-6.5-.9-3.3-.4-6.7-.9-7.5-1.1-.8-.2-4.5-.7-8.2-1-3.7-.3-7.5-.7-8.5-.9-1-.2-5.4-.7-9.9-1-4.5-.4-9-.8-10-1-1-.2-7.1-.7-13.4-1.1-6.3-.4-13.5-.9-16-1.1-6-.5-78.7-1.4-79.1-1z"/></svg>